<?xml version="1.0" standalone="no"?>
<!DOCTYPE svg PUBLIC "-//W3C//DTD SVG 20010904//EN"
 "http://www.w3.org/TR/2001/REC-SVG-20010904/DTD/svg10.dtd">
<svg version="1.0" xmlns="http://www.w3.org/2000/svg"
 width="512.000000pt" height="512.000000pt" viewBox="0 0 512.000000 512.000000"
 preserveAspectRatio="xMidYMid meet">

<g transform="translate(0.000000,512.000000) scale(0.100000,-0.100000)"
fill="#000000" stroke="none">
<path d="M2517 5108 c-23 -18 -37 -62 -37 -117 l0 -48 -84 -7 c-141 -10 -347
-71 -488 -142 -26 -13 -52 -24 -57 -24 -5 0 -19 17 -32 38 -38 63 -60 82 -95
82 -23 0 -38 -8 -53 -26 -28 -36 -26 -62 9 -118 17 -26 32 -51 33 -55 1 -5
-35 -38 -79 -74 -128 -104 -245 -241 -332 -390 -34 -59 -49 -76 -61 -71 -9 3
-42 16 -73 27 l-57 22 -28 -21 c-31 -23 -41 -69 -24 -103 6 -10 38 -30 71 -43
33 -12 60 -27 60 -32 0 -4 -11 -45 -25 -90 -49 -163 -59 -240 -60 -432 l0
-182 -48 42 c-131 114 -214 154 -334 163 -203 16 -389 -89 -477 -268 -82 -168
-71 -340 34 -496 94 -142 569 -512 855 -668 47 -26 87 -50 89 -53 2 -4 7 -37
11 -75 l7 -67 -48 0 c-88 -1 -168 -53 -205 -135 -16 -34 -19 -67 -19 -216 0
-193 6 -221 59 -282 17 -18 47 -41 69 -51 l38 -17 83 -426 c74 -373 88 -435
118 -495 63 -124 185 -219 321 -247 74 -15 1730 -15 1804 0 138 29 261 125
323 253 30 62 45 126 115 484 44 226 80 416 80 421 0 4 18 16 41 26 50 23 102
82 117 134 19 60 16 363 -4 409 -34 82 -120 141 -208 142 l-48 0 7 73 c4 39 8
72 9 73 0 0 41 23 91 49 281 152 761 526 855 668 105 156 116 328 34 496 -143
290 -518 361 -764 145 -30 -26 -64 -56 -75 -65 -20 -18 -20 -17 -20 164 -1
193 -11 270 -60 433 -14 45 -25 86 -25 91 0 5 22 17 49 27 69 24 93 49 89 93
-2 26 -11 42 -31 57 l-28 21 -57 -22 c-31 -11 -64 -24 -73 -27 -12 -5 -27 12
-61 71 -25 43 -64 102 -85 131 l-40 53 18 36 c31 61 34 116 10 187 -12 35 -21
88 -21 122 0 93 -16 133 -73 189 -60 58 -105 75 -201 75 -41 0 -79 6 -97 16
-41 21 -134 21 -184 0 -50 -21 -101 -69 -127 -119 -14 -29 -24 -37 -36 -32
-47 18 -186 46 -259 51 l-83 7 0 41 c0 55 -15 105 -37 122 -23 17 -64 18 -86
2z m789 -225 c26 -11 64 -16 113 -15 69 1 76 -1 102 -28 27 -26 29 -34 29
-104 0 -52 6 -91 20 -127 34 -85 3 -136 -92 -153 -21 -4 -57 -22 -82 -40 -107
-82 -136 -77 -216 36 -14 20 -47 51 -75 70 -38 26 -52 42 -59 71 -9 33 -6 41
22 80 43 56 68 105 76 147 14 75 77 100 162 63z m-823 -154 c6 -72 29 -102 77
-102 49 0 73 31 75 100 l2 58 64 -1 c35 0 100 -9 145 -19 l81 -17 -19 -52
c-37 -95 -7 -204 73 -268 53 -42 85 -74 128 -128 78 -97 222 -118 322 -45 19
13 43 31 54 39 11 8 36 17 55 20 32 6 37 3 67 -36 34 -46 113 -174 113 -183 0
-3 -19 -14 -43 -24 -52 -23 -70 -43 -70 -81 0 -64 59 -87 138 -54 20 8 39 14
40 12 2 -2 16 -44 30 -93 33 -116 55 -257 55 -365 0 -80 -135 -1570 -145
-1597 -3 -10 -179 -13 -834 -13 l-830 0 -20 -26 c-12 -15 -21 -33 -21 -40 0
-26 23 -62 47 -73 17 -8 295 -11 958 -11 l934 0 20 -26 c19 -24 21 -40 21
-175 0 -81 -3 -155 -6 -164 -16 -40 -50 -45 -344 -45 l-281 0 -26 -26 c-20
-20 -24 -31 -19 -57 12 -65 23 -67 278 -67 214 0 229 -1 224 -17 -3 -10 -37
-182 -76 -383 -39 -201 -78 -386 -86 -412 -21 -64 -92 -140 -162 -175 l-57
-28 -885 0 -885 0 -53 24 c-67 30 -145 114 -166 178 -9 27 -47 210 -86 408
-38 198 -72 370 -75 383 l-5 22 915 0 916 0 24 25 c32 31 33 74 2 103 l-23 22
-983 2 -983 3 -19 24 c-17 21 -19 40 -19 176 0 138 2 155 20 178 l21 26 335 3
336 3 19 24 c25 30 24 76 -1 101 -19 19 -33 20 -235 20 -163 0 -217 3 -220 13
-10 26 -145 1513 -145 1594 0 111 25 275 57 377 14 45 26 82 28 84 2 2 20 -4
40 -12 79 -33 138 -10 138 54 0 38 -18 58 -70 81 -24 10 -43 21 -43 24 0 18
97 162 161 239 64 77 177 182 223 208 7 4 25 -11 47 -40 28 -39 40 -48 70 -50
30 -2 41 2 58 24 27 34 26 60 -4 109 -14 22 -25 43 -25 47 0 9 111 61 200 92
91 32 238 64 301 65 l46 1 6 -61z m-1663 -1400 c48 -23 131 -89 272 -219 l38
-35 40 -429 c22 -236 38 -431 36 -434 -11 -10 -261 153 -416 272 -238 182
-387 324 -420 401 -79 184 20 399 211 460 67 22 173 15 239 -16z m3761 -2 c70
-34 132 -96 167 -166 23 -48 27 -68 26 -141 -1 -107 -22 -159 -101 -242 -110
-115 -355 -313 -538 -435 -124 -82 -215 -136 -221 -131 -2 3 14 200 36 438
l41 432 32 27 c17 14 70 60 117 101 114 100 111 99 177 126 79 33 186 30 264
-9z"/>
<path d="M3277 4745 c-50 -17 -64 -30 -77 -71 -26 -78 21 -153 102 -161 85 -8
153 69 129 147 -21 71 -88 108 -154 85z"/>
<path d="M1785 3345 c-23 -22 -25 -32 -25 -113 0 -107 18 -142 75 -142 57 0
75 35 75 142 0 81 -2 91 -25 113 -13 14 -36 25 -50 25 -14 0 -37 -11 -50 -25z"/>
<path d="M3235 3345 c-23 -22 -25 -32 -25 -113 0 -107 18 -142 75 -142 57 0
75 35 75 142 0 81 -2 91 -25 113 -13 14 -36 25 -50 25 -14 0 -37 -11 -50 -25z"/>
<path d="M2336 3229 c-41 -32 -36 -82 11 -127 61 -57 115 -77 213 -77 73 0 93
4 142 28 104 51 140 130 82 176 -37 29 -48 27 -116 -19 -49 -33 -69 -40 -108
-40 -39 0 -59 7 -108 40 -68 46 -79 48 -116 19z"/>
</g>
</svg>
